<?xml version="1.0" standalone="no"?>
<!DOCTYPE svg PUBLIC "-//W3C//DTD SVG 20010904//EN"
 "http://www.w3.org/TR/2001/REC-SVG-20010904/DTD/svg10.dtd">
<svg version="1.0" xmlns="http://www.w3.org/2000/svg"
 width="223.000000pt" height="223.000000pt" viewBox="0 0 223.000000 223.000000"
 preserveAspectRatio="xMidYMid meet">

<g transform="translate(0.000000,223.000000) scale(0.100000,-0.100000)"
fill="#000000" stroke="none">
<path d="M1008 1963 l-38 -4 0 -87 c0 -448 -231 -840 -617 -1049 l-73 -40 39
-79 c21 -43 59 -107 85 -141 l47 -62 75 45 c197 116 438 174 669 161 182 -11
332 -53 508 -145 l109 -56 19 24 c49 61 82 114 114 181 l35 73 -73 39 c-379
205 -617 603 -617 1033 0 78 -3 93 -17 99 -21 9 -212 15 -265 8z m135 -825 c8
-18 28 -52 42 -75 l26 -43 -90 0 -89 0 41 75 c23 41 45 75 48 75 3 0 13 -15
22 -32z"/>
<path d="M720 1879 c-41 -23 -76 -42 -77 -43 -1 -1 -4 -32 -7 -68 -6 -74 -45
-205 -84 -283 -60 -120 -152 -229 -267 -316 l-55 -41 1 -67 c1 -36 4 -76 7
-89 l7 -23 59 36 c167 100 308 252 395 423 12 24 38 94 58 155 29 94 36 132
40 235 3 67 4 122 2 122 -2 0 -38 -19 -79 -41z"/>
<path d="M1460 1832 c0 -337 191 -664 495 -847 71 -42 73 -40 74 71 l1 72 -55
41 c-200 151 -325 365 -350 602 l-7 66 -79 42 -79 42 0 -89z"/>
<path d="M1010 539 c-118 -13 -226 -45 -338 -100 l-102 -51 37 -27 c21 -15 57
-38 79 -50 l42 -23 65 26 c129 51 182 61 337 61 155 0 208 -10 337 -61 l65
-26 42 23 c22 12 58 35 79 50 l37 27 -102 51 c-116 57 -220 87 -353 101 -101
11 -119 11 -225 -1z"/>
</g>
</svg>
